<svg xmlns="http://www.w3.org/2000/svg" viewBox="0 0 800 300" role="img" aria-labelledby="t"><title id="t">Five numbered doors: gates installed in the interrupt descriptor table</title><defs><linearGradient id="bg" x1="0" y1="0" x2="0" y2="1"><stop offset="0" stop-color="#1d1230"/><stop offset="1" stop-color="#3a1d5e"/></linearGradient><pattern id="dots" width="26" height="26" patternUnits="userSpaceOnUse"><circle cx="2" cy="2" r="1.2" fill="#f2e9ff" opacity=".14"/></pattern></defs><rect width="800" height="300" fill="url(#bg)"/><rect width="800" height="300" fill="url(#dots)"/><rect x="90" y="80" width="90" height="150" rx="4" fill="#120a1f" stroke="#b388ff" stroke-width="4"/><path d="M90,80 a45,35 0 0 1 90,0" fill="#120a1f" stroke="#b388ff" stroke-width="4" stroke-linecap="round" stroke-linejoin="round"/><rect x="98" y="100" width="74" height="120" rx="2" fill="#102a44" stroke="#f2e9ff" stroke-width="2"/><circle cx="160" cy="165" r="5" fill="#f2e9ff"/><text x="135" y="262" font-family="ui-monospace,Menlo,Consolas,monospace" font-size="14" fill="#f2e9ff" text-anchor="middle">INT 32</text><rect x="225" y="80" width="90" height="150" rx="4" fill="#120a1f" stroke="#b388ff" stroke-width="4"/><path d="M225,80 a45,35 0 0 1 90,0" fill="#120a1f" stroke="#b388ff" stroke-width="4" stroke-linecap="round" stroke-linejoin="round"/><rect x="233" y="100" width="74" height="120" rx="2" fill="#102a44" stroke="#f2e9ff" stroke-width="2"/><circle cx="295" cy="165" r="5" fill="#f2e9ff"/><text x="270" y="262" font-family="ui-monospace,Menlo,Consolas,monospace" font-size="14" fill="#f2e9ff" text-anchor="middle">INT 33</text><rect x="360" y="80" width="90" height="150" rx="4" fill="#120a1f" stroke="#b388ff" stroke-width="4"/><path d="M360,80 a45,35 0 0 1 90,0" fill="#120a1f" stroke="#b388ff" stroke-width="4" stroke-linecap="round" stroke-linejoin="round"/><rect x="368" y="100" width="74" height="120" rx="2" fill="#102a44" stroke="#f2e9ff" stroke-width="2"/><circle cx="430" cy="165" r="5" fill="#f2e9ff"/><text x="405" y="262" font-family="ui-monospace,Menlo,Consolas,monospace" font-size="14" fill="#f2e9ff" text-anchor="middle">INT 34</text><rect x="495" y="80" width="90" height="150" rx="4" fill="#120a1f" stroke="#b388ff" stroke-width="4"/><path d="M495,80 a45,35 0 0 1 90,0" fill="#120a1f" stroke="#b388ff" stroke-width="4" stroke-linecap="round" stroke-linejoin="round"/><rect x="503" y="100" width="74" height="120" rx="2" fill="#ffd166" stroke="#f2e9ff" stroke-width="2"/><circle cx="565" cy="165" r="5" fill="#f2e9ff"/><text x="540" y="262" font-family="ui-monospace,Menlo,Consolas,monospace" font-size="14" fill="#f2e9ff" text-anchor="middle">INT 35</text><rect x="630" y="80" width="90" height="150" rx="4" fill="#120a1f" stroke="#b388ff" stroke-width="4"/><path d="M630,80 a45,35 0 0 1 90,0" fill="#120a1f" stroke="#b388ff" stroke-width="4" stroke-linecap="round" stroke-linejoin="round"/><rect x="638" y="100" width="74" height="120" rx="2" fill="#102a44" stroke="#f2e9ff" stroke-width="2"/><circle cx="700" cy="165" r="5" fill="#f2e9ff"/><text x="675" y="262" font-family="ui-monospace,Menlo,Consolas,monospace" font-size="14" fill="#f2e9ff" text-anchor="middle">INT 36</text><text x="400" y="30" font-family="ui-monospace,Menlo,Consolas,monospace" font-size="20" fill="#ffd166" text-anchor="middle" font-weight="bold">install_gate(n, handler)</text></svg>
