<svg xmlns="http://www.w3.org/2000/svg" viewBox="0 0 800 300" role="img" aria-labelledby="t"><title id="t">An ELF file whose segments are loaded into memory</title><defs><linearGradient id="bg" x1="0" y1="0" x2="0" y2="1"><stop offset="0" stop-color="#10261c"/><stop offset="1" stop-color="#1d4a37"/></linearGradient><pattern id="dots" width="26" height="26" patternUnits="userSpaceOnUse"><circle cx="2" cy="2" r="1.2" fill="#e6f6ee" opacity=".14"/></pattern></defs><rect width="800" height="300" fill="url(#bg)"/><rect width="800" height="300" fill="url(#dots)"/><rect x="70" y="50" width="150" height="200" rx="6" fill="#08150f" stroke="#e6f6ee" stroke-width="3"/><text x="145" y="78" font-family="ui-monospace,Menlo,Consolas,monospace" font-size="22" fill="#ffd166" text-anchor="middle" font-weight="bold">ELF</text><rect x="84" y="92" width="122" height="30" rx="3" fill="#52b788" stroke="#08150f" stroke-width="2"/><text x="145" y="113" font-family="ui-monospace,Menlo,Consolas,monospace" font-size="14" fill="#08150f" text-anchor="middle" font-weight="bold">header</text><rect x="84" y="130" width="122" height="30" rx="3" fill="#ffd166" stroke="#08150f" stroke-width="2"/><text x="145" y="151" font-family="ui-monospace,Menlo,Consolas,monospace" font-size="14" fill="#08150f" text-anchor="middle" font-weight="bold">.text</text><rect x="84" y="168" width="122" height="30" rx="3" fill="#e6f6ee" stroke="#08150f" stroke-width="2"/><text x="145" y="189" font-family="ui-monospace,Menlo,Consolas,monospace" font-size="14" fill="#08150f" text-anchor="middle" font-weight="bold">.data</text><rect x="84" y="206" width="122" height="30" rx="3" fill="#52b788" stroke="#08150f" stroke-width="2"/><text x="145" y="227" font-family="ui-monospace,Menlo,Consolas,monospace" font-size="14" fill="#08150f" text-anchor="middle" font-weight="bold">.bss</text><line x1="230" y1="150" x2="420" y2="150" stroke="#ffd166" stroke-width="3" stroke-linecap="round"/><polygon points="420,150 409.8683290659683,154.28360176539516 409.8683290659683,145.71639823460484" fill="#ffd166"/><text x="325" y="130" font-family="ui-monospace,Menlo,Consolas,monospace" font-size="16" fill="#e6f6ee" text-anchor="middle">PT_LOAD</text><rect x="440" y="70" width="40" height="32" rx="2" fill="#52b788" stroke="#08150f" stroke-width="1.5"/><rect x="484" y="70" width="40" height="32" rx="2" fill="#52b788" stroke="#08150f" stroke-width="1.5"/><rect x="528" y="70" width="40" height="32" rx="2" fill="#52b788" stroke="#08150f" stroke-width="1.5"/><rect x="572" y="70" width="40" height="32" rx="2" fill="#52b788" stroke="#08150f" stroke-width="1.5"/><rect x="616" y="70" width="40" height="32" rx="2" fill="#52b788" stroke="#08150f" stroke-width="1.5"/><rect x="660" y="70" width="40" height="32" rx="2" fill="#52b788" stroke="#08150f" stroke-width="1.5"/><rect x="440" y="106" width="40" height="32" rx="2" fill="#52b788" stroke="#08150f" stroke-width="1.5"/><rect x="484" y="106" width="40" height="32" rx="2" fill="#ffd166" stroke="#08150f" stroke-width="1.5"/><rect x="528" y="106" width="40" height="32" rx="2" fill="#ffd166" stroke="#08150f" stroke-width="1.5"/><rect x="572" y="106" width="40" height="32" rx="2" fill="#52b788" stroke="#08150f" stroke-width="1.5"/><rect x="616" y="106" width="40" height="32" rx="2" fill="#52b788" stroke="#08150f" stroke-width="1.5"/><rect x="660" y="106" width="40" height="32" rx="2" fill="#52b788" stroke="#08150f" stroke-width="1.5"/><rect x="440" y="142" width="40" height="32" rx="2" fill="#52b788" stroke="#08150f" stroke-width="1.5"/><rect x="484" y="142" width="40" height="32" rx="2" fill="#ffd166" stroke="#08150f" stroke-width="1.5"/><rect x="528" y="142" width="40" height="32" rx="2" fill="#52b788" stroke="#08150f" stroke-width="1.5"/><rect x="572" y="142" width="40" height="32" rx="2" fill="#52b788" stroke="#08150f" stroke-width="1.5"/><rect x="616" y="142" width="40" height="32" rx="2" fill="#52b788" stroke="#08150f" stroke-width="1.5"/><rect x="660" y="142" width="40" height="32" rx="2" fill="#52b788" stroke="#08150f" stroke-width="1.5"/><rect x="440" y="178" width="40" height="32" rx="2" fill="#52b788" stroke="#08150f" stroke-width="1.5"/><rect x="484" y="178" width="40" height="32" rx="2" fill="#52b788" stroke="#08150f" stroke-width="1.5"/><rect x="528" y="178" width="40" height="32" rx="2" fill="#52b788" stroke="#08150f" stroke-width="1.5"/><rect x="572" y="178" width="40" height="32" rx="2" fill="#52b788" stroke="#08150f" stroke-width="1.5"/><rect x="616" y="178" width="40" height="32" rx="2" fill="#52b788" stroke="#08150f" stroke-width="1.5"/><rect x="660" y="178" width="40" height="32" rx="2" fill="#52b788" stroke="#08150f" stroke-width="1.5"/><rect x="440" y="214" width="40" height="32" rx="2" fill="#52b788" stroke="#08150f" stroke-width="1.5"/><rect x="484" y="214" width="40" height="32" rx="2" fill="#52b788" stroke="#08150f" stroke-width="1.5"/><rect x="528" y="214" width="40" height="32" rx="2" fill="#52b788" stroke="#08150f" stroke-width="1.5"/><rect x="572" y="214" width="40" height="32" rx="2" fill="#52b788" stroke="#08150f" stroke-width="1.5"/><rect x="616" y="214" width="40" height="32" rx="2" fill="#52b788" stroke="#08150f" stroke-width="1.5"/><rect x="660" y="214" width="40" height="32" rx="2" fill="#52b788" stroke="#08150f" stroke-width="1.5"/><text x="580" y="270" font-family="ui-monospace,Menlo,Consolas,monospace" font-size="16" fill="#ffd166" text-anchor="middle">0x400000</text></svg>
