<svg xmlns="http://www.w3.org/2000/svg" viewBox="0 0 800 300" role="img" aria-labelledby="t"><title id="t">Two banks exchanging an encrypted wire transfer</title><defs><linearGradient id="bg" x1="0" y1="0" x2="0" y2="1"><stop offset="0" stop-color="#0b2a1a"/><stop offset="1" stop-color="#14532d"/></linearGradient><pattern id="dots" width="26" height="26" patternUnits="userSpaceOnUse"><circle cx="2" cy="2" r="1.2" fill="#e8fbef" opacity=".14"/></pattern></defs><rect width="800" height="300" fill="url(#bg)"/><rect width="800" height="300" fill="url(#dots)"/><polygon points="60,116.0 146.25,70 232.5,116.0" fill="#e8fbef" stroke="#06170e" stroke-width="2" stroke-linejoin="round"/><rect x="76.1" y="125.19999999999999" width="16.099999999999998" height="71.3" rx="2" fill="#e8fbef" stroke="#06170e" stroke-width="1.5"/><rect x="106.0" y="125.19999999999999" width="16.099999999999998" height="71.3" rx="2" fill="#e8fbef" stroke="#06170e" stroke-width="1.5"/><rect x="135.89999999999998" y="125.19999999999999" width="16.099999999999998" height="71.3" rx="2" fill="#e8fbef" stroke="#06170e" stroke-width="1.5"/><rect x="165.79999999999998" y="125.19999999999999" width="16.099999999999998" height="71.3" rx="2" fill="#e8fbef" stroke="#06170e" stroke-width="1.5"/><rect x="195.7" y="125.19999999999999" width="16.099999999999998" height="71.3" rx="2" fill="#e8fbef" stroke="#06170e" stroke-width="1.5"/><rect x="53.1" y="198.79999999999998" width="186.3" height="16.099999999999998" rx="2" fill="#e8fbef" stroke="#06170e" stroke-width="2"/><rect x="43.900000000000006" y="214.89999999999998" width="204.7" height="13.799999999999999" rx="2" fill="#4ade80" stroke="#06170e" stroke-width="2"/><circle cx="146.25" cy="95.3" r="9.2" fill="#fbbf24" stroke="#06170e" stroke-width="1.5"/><polygon points="520,116.0 606.25,70 692.5,116.0" fill="#e8fbef" stroke="#06170e" stroke-width="2" stroke-linejoin="round"/><rect x="536.1" y="125.19999999999999" width="16.099999999999998" height="71.3" rx="2" fill="#e8fbef" stroke="#06170e" stroke-width="1.5"/><rect x="566.0" y="125.19999999999999" width="16.099999999999998" height="71.3" rx="2" fill="#e8fbef" stroke="#06170e" stroke-width="1.5"/><rect x="595.9" y="125.19999999999999" width="16.099999999999998" height="71.3" rx="2" fill="#e8fbef" stroke="#06170e" stroke-width="1.5"/><rect x="625.8" y="125.19999999999999" width="16.099999999999998" height="71.3" rx="2" fill="#e8fbef" stroke="#06170e" stroke-width="1.5"/><rect x="655.7" y="125.19999999999999" width="16.099999999999998" height="71.3" rx="2" fill="#e8fbef" stroke="#06170e" stroke-width="1.5"/><rect x="513.1" y="198.79999999999998" width="186.3" height="16.099999999999998" rx="2" fill="#e8fbef" stroke="#06170e" stroke-width="2"/><rect x="503.9" y="214.89999999999998" width="204.7" height="13.799999999999999" rx="2" fill="#4ade80" stroke="#06170e" stroke-width="2"/><circle cx="606.25" cy="95.3" r="9.2" fill="#fbbf24" stroke="#06170e" stroke-width="1.5"/><rect x="290" y="120" width="180" height="52" rx="6" fill="#fbbf24" stroke="#e8fbef" stroke-width="2"/><rect x="290" y="120" width="54.0" height="52" rx="6" fill="#fbbf24"/><text x="317.0" y="151.0" font-family="ui-monospace,Menlo,Consolas,monospace" font-size="13" fill="#06170e" text-anchor="middle" font-weight="bold">$$$$</text><line x1="236" y1="146" x2="284" y2="146" stroke="#e8fbef" stroke-width="3" stroke-linecap="round"/><polygon points="284,146 273.8683290659683,150.28360176539516 273.8683290659683,141.71639823460484" fill="#e8fbef"/><line x1="474" y1="146" x2="516" y2="146" stroke="#e8fbef" stroke-width="3" stroke-linecap="round"/><polygon points="516,146 505.8683290659683,150.28360176539516 505.8683290659683,141.71639823460484" fill="#e8fbef"/><rect x="350" y="216.4" width="52.8" height="40.8" rx="5" fill="#fbbf24" stroke="#06170e" stroke-width="2.5"/><path d="M360.8,216.4 v-12.0 a15.6,15.6 0 0 1 31.2,0 v12.0" fill="none" stroke="#e8fbef" stroke-width="6.0" stroke-linecap="round" stroke-linejoin="round"/><circle cx="376.4" cy="235.6" r="6.0" fill="#06170e"/><text x="380" y="275" font-family="ui-monospace,Menlo,Consolas,monospace" font-size="16" fill="#e8fbef" text-anchor="middle">AES-128 · SHA-256 · HMAC</text></svg>
