<svg xmlns="http://www.w3.org/2000/svg" viewBox="0 0 960 400" role="img" aria-label="Engines"><title>Engines</title><rect x="0.5" y="0.5" width="959" height="399" rx="10" fill="#fbfcfe" stroke="#d5dbe3"/><text x="480.0" y="24.0" font-family="ui-sans-serif,system-ui,'Segoe UI',Helvetica,Arial,sans-serif" font-size="14" fill="#1f2a37" text-anchor="middle" font-weight="bold">Two ways to find an entry: compare with all of them, or compute where it must be</text><rect x="20.0" y="44.0" width="450.0" height="336.0" rx="10" fill="#edf2f7" stroke="#a0aec0" stroke-width="1.2" opacity="0.5"/><text x="245.0" y="68.0" font-family="ui-sans-serif,system-ui,'Segoe UI',Helvetica,Arial,sans-serif" font-size="13" fill="#1f2a37" text-anchor="middle" font-weight="bold">CAM: N comparators in parallel</text><rect x="40.0" y="190.0" width="70.0" height="40.0" rx="8" fill="#edf2f7" stroke="#a0aec0" stroke-width="1.8"/><text x="75.0" y="214.2" font-family="ui-sans-serif,system-ui,'Segoe UI',Helvetica,Arial,sans-serif" font-size="12" fill="#1f2a37" text-anchor="middle">key</text><rect x="160.0" y="90.0" width="130.0" height="40.0" rx="8" fill="#dbeafe" stroke="#2b6cb0" stroke-width="1.8"/><text x="225.0" y="107.2" font-family="ui-sans-serif,system-ui,'Segoe UI',Helvetica,Arial,sans-serif" font-size="9.5" fill="#1f2a37" text-anchor="middle">slot 0</text><text x="225.0" y="119.5" font-family="ui-sans-serif,system-ui,'Segoe UI',Helvetica,Arial,sans-serif" font-size="9.5" fill="#1f2a37" text-anchor="middle">key, mask or range, value</text><line x1="110.0" y1="210.0" x2="155.7" y2="114.9" stroke="#51606f" stroke-width="1.2" stroke-linecap="round"/><polygon points="158.0,110.0 157.8,119.0 151.1,115.8" fill="#51606f"/><rect x="305.0" y="96.0" width="30.0" height="28.0" rx="8" fill="#feebc8" stroke="#dd6b20" stroke-width="1.8"/><text x="320.0" y="114.2" font-family="ui-sans-serif,system-ui,'Segoe UI',Helvetica,Arial,sans-serif" font-size="12" fill="#1f2a37" text-anchor="middle" font-weight="bold">=</text><line x1="290.0" y1="110.0" x2="298.6" y2="110.0" stroke="#1f2a37" stroke-width="1.3" stroke-linecap="round"/><polygon points="304.0,110.0 295.8,113.7 295.8,106.3" fill="#1f2a37"/><line x1="336.0" y1="110.0" x2="354.6" y2="110.0" stroke="#1f2a37" stroke-width="1.3" stroke-linecap="round"/><polygon points="360.0,110.0 351.8,113.7 351.8,106.3" fill="#1f2a37"/><rect x="160.0" y="152.0" width="130.0" height="40.0" rx="8" fill="#dbeafe" stroke="#2b6cb0" stroke-width="1.8"/><text x="225.0" y="169.1" font-family="ui-sans-serif,system-ui,'Segoe UI',Helvetica,Arial,sans-serif" font-size="9.5" fill="#1f2a37" text-anchor="middle">slot 1</text><text x="225.0" y="181.5" font-family="ui-sans-serif,system-ui,'Segoe UI',Helvetica,Arial,sans-serif" font-size="9.5" fill="#1f2a37" text-anchor="middle">key, mask or range, value</text><line x1="110.0" y1="210.0" x2="153.8" y2="175.4" stroke="#51606f" stroke-width="1.2" stroke-linecap="round"/><polygon points="158.0,172.0 153.8,180.0 149.3,174.2" fill="#51606f"/><rect x="305.0" y="158.0" width="30.0" height="28.0" rx="8" fill="#feebc8" stroke="#dd6b20" stroke-width="1.8"/><text x="320.0" y="176.2" font-family="ui-sans-serif,system-ui,'Segoe UI',Helvetica,Arial,sans-serif" font-size="12" fill="#1f2a37" text-anchor="middle" font-weight="bold">=</text><line x1="290.0" y1="172.0" x2="298.6" y2="172.0" stroke="#1f2a37" stroke-width="1.3" stroke-linecap="round"/><polygon points="304.0,172.0 295.8,175.7 295.8,168.3" fill="#1f2a37"/><line x1="336.0" y1="172.0" x2="354.6" y2="172.0" stroke="#1f2a37" stroke-width="1.3" stroke-linecap="round"/><polygon points="360.0,172.0 351.8,175.7 351.8,168.3" fill="#1f2a37"/><rect x="160.0" y="214.0" width="130.0" height="40.0" rx="8" fill="#dbeafe" stroke="#2b6cb0" stroke-width="1.8"/><text x="225.0" y="231.1" font-family="ui-sans-serif,system-ui,'Segoe UI',Helvetica,Arial,sans-serif" font-size="9.5" fill="#1f2a37" text-anchor="middle">slot 2</text><text x="225.0" y="243.5" font-family="ui-sans-serif,system-ui,'Segoe UI',Helvetica,Arial,sans-serif" font-size="9.5" fill="#1f2a37" text-anchor="middle">key, mask or range, value</text><line x1="110.0" y1="210.0" x2="153.2" y2="231.6" stroke="#51606f" stroke-width="1.2" stroke-linecap="round"/><polygon points="158.0,234.0 149.0,233.6 152.3,227.0" fill="#51606f"/><rect x="305.0" y="220.0" width="30.0" height="28.0" rx="8" fill="#feebc8" stroke="#dd6b20" stroke-width="1.8"/><text x="320.0" y="238.2" font-family="ui-sans-serif,system-ui,'Segoe UI',Helvetica,Arial,sans-serif" font-size="12" fill="#1f2a37" text-anchor="middle" font-weight="bold">=</text><line x1="290.0" y1="234.0" x2="298.6" y2="234.0" stroke="#1f2a37" stroke-width="1.3" stroke-linecap="round"/><polygon points="304.0,234.0 295.8,237.7 295.8,230.3" fill="#1f2a37"/><line x1="336.0" y1="234.0" x2="354.6" y2="234.0" stroke="#1f2a37" stroke-width="1.3" stroke-linecap="round"/><polygon points="360.0,234.0 351.8,237.7 351.8,230.3" fill="#1f2a37"/><rect x="160.0" y="276.0" width="130.0" height="40.0" rx="8" fill="#dbeafe" stroke="#2b6cb0" stroke-width="1.8"/><text x="225.0" y="293.1" font-family="ui-sans-serif,system-ui,'Segoe UI',Helvetica,Arial,sans-serif" font-size="9.5" fill="#1f2a37" text-anchor="middle">slot 3</text><text x="225.0" y="305.5" font-family="ui-sans-serif,system-ui,'Segoe UI',Helvetica,Arial,sans-serif" font-size="9.5" fill="#1f2a37" text-anchor="middle">key, mask or range, value</text><line x1="110.0" y1="210.0" x2="155.4" y2="291.3" stroke="#51606f" stroke-width="1.2" stroke-linecap="round"/><polygon points="158.0,296.0 150.8,290.6 157.2,287.0" fill="#51606f"/><rect x="305.0" y="282.0" width="30.0" height="28.0" rx="8" fill="#feebc8" stroke="#dd6b20" stroke-width="1.8"/><text x="320.0" y="300.2" font-family="ui-sans-serif,system-ui,'Segoe UI',Helvetica,Arial,sans-serif" font-size="12" fill="#1f2a37" text-anchor="middle" font-weight="bold">=</text><line x1="290.0" y1="296.0" x2="298.6" y2="296.0" stroke="#1f2a37" stroke-width="1.3" stroke-linecap="round"/><polygon points="304.0,296.0 295.8,299.7 295.8,292.3" fill="#1f2a37"/><line x1="336.0" y1="296.0" x2="354.6" y2="296.0" stroke="#1f2a37" stroke-width="1.3" stroke-linecap="round"/><polygon points="360.0,296.0 351.8,299.7 351.8,292.3" fill="#1f2a37"/><text x="245.0" y="345.0" font-family="ui-sans-serif,system-ui,'Segoe UI',Helvetica,Arial,sans-serif" font-size="14" fill="#1f2a37" text-anchor="middle">...</text><rect x="360.0" y="120.0" width="90.0" height="150.0" rx="8" fill="#c6f6d5" stroke="#2f855a" stroke-width="1.8"/><text x="405.0" y="178.2" font-family="ui-sans-serif,system-ui,'Segoe UI',Helvetica,Arial,sans-serif" font-size="10.5" fill="#1f2a37" text-anchor="middle" font-weight="bold">priority</text><text x="405.0" y="191.9" font-family="ui-sans-serif,system-ui,'Segoe UI',Helvetica,Arial,sans-serif" font-size="10.5" fill="#1f2a37" text-anchor="middle" font-weight="bold">encoder</text><text x="405.0" y="205.5" font-family="ui-sans-serif,system-ui,'Segoe UI',Helvetica,Arial,sans-serif" font-size="10.5" fill="#1f2a37" text-anchor="middle" font-weight="bold">lowest slot</text><text x="405.0" y="219.2" font-family="ui-sans-serif,system-ui,'Segoe UI',Helvetica,Arial,sans-serif" font-size="10.5" fill="#1f2a37" text-anchor="middle" font-weight="bold">wins</text><line x1="450.0" y1="195.0" x2="462.6" y2="195.0" stroke="#1f2a37" stroke-width="1.5" stroke-linecap="round"/><polygon points="468.0,195.0 459.8,198.7 459.8,191.3" fill="#1f2a37"/><text x="245.0" y="372.0" font-family="ui-sans-serif,system-ui,'Segoe UI',Helvetica,Arial,sans-serif" font-size="11.5" fill="#c53030" text-anchor="middle" font-weight="bold">area grows with the number of slots; one lookup per clock</text><rect x="490.0" y="44.0" width="450.0" height="336.0" rx="10" fill="#edf2f7" stroke="#a0aec0" stroke-width="1.2" opacity="0.5"/><text x="715.0" y="68.0" font-family="ui-sans-serif,system-ui,'Segoe UI',Helvetica,Arial,sans-serif" font-size="13" fill="#1f2a37" text-anchor="middle" font-weight="bold">Hash table in block RAM (two choices)</text><rect x="510.0" y="190.0" width="70.0" height="40.0" rx="8" fill="#edf2f7" stroke="#a0aec0" stroke-width="1.8"/><text x="545.0" y="214.2" font-family="ui-sans-serif,system-ui,'Segoe UI',Helvetica,Arial,sans-serif" font-size="12" fill="#1f2a37" text-anchor="middle">key</text><rect x="620.0" y="110.0" width="100.0" height="40.0" rx="8" fill="#feebc8" stroke="#dd6b20" stroke-width="1.8"/><text x="670.0" y="134.2" font-family="ui-sans-serif,system-ui,'Segoe UI',Helvetica,Arial,sans-serif" font-size="12" fill="#1f2a37" text-anchor="middle" font-weight="bold">hash 1</text><rect x="620.0" y="250.0" width="100.0" height="40.0" rx="8" fill="#feebc8" stroke="#dd6b20" stroke-width="1.8"/><text x="670.0" y="274.2" font-family="ui-sans-serif,system-ui,'Segoe UI',Helvetica,Arial,sans-serif" font-size="12" fill="#1f2a37" text-anchor="middle" font-weight="bold">hash 2</text><line x1="580.0" y1="205.0" x2="615.4" y2="139.7" stroke="#51606f" stroke-width="1.3" stroke-linecap="round"/><polygon points="618.0,135.0 617.3,144.0 610.9,140.5" fill="#51606f"/><line x1="580.0" y1="215.0" x2="614.7" y2="260.7" stroke="#51606f" stroke-width="1.3" stroke-linecap="round"/><polygon points="618.0,265.0 610.1,260.7 615.9,256.2" fill="#51606f"/><rect x="760.0" y="90.0" width="90.0" height="80.0" rx="8" fill="#dbeafe" stroke="#2b6cb0" stroke-width="1.8"/><text x="805.0" y="127.0" font-family="ui-sans-serif,system-ui,'Segoe UI',Helvetica,Arial,sans-serif" font-size="10" fill="#1f2a37" text-anchor="middle" font-weight="bold">RAM 0</text><text x="805.0" y="140.0" font-family="ui-sans-serif,system-ui,'Segoe UI',Helvetica,Arial,sans-serif" font-size="10" fill="#1f2a37" text-anchor="middle" font-weight="bold">{valid, key, value}</text><rect x="760.0" y="230.0" width="90.0" height="80.0" rx="8" fill="#dbeafe" stroke="#2b6cb0" stroke-width="1.8"/><text x="805.0" y="267.0" font-family="ui-sans-serif,system-ui,'Segoe UI',Helvetica,Arial,sans-serif" font-size="10" fill="#1f2a37" text-anchor="middle" font-weight="bold">RAM 1</text><text x="805.0" y="280.0" font-family="ui-sans-serif,system-ui,'Segoe UI',Helvetica,Arial,sans-serif" font-size="10" fill="#1f2a37" text-anchor="middle" font-weight="bold">{valid, key, value}</text><line x1="720.0" y1="130.0" x2="752.6" y2="130.0" stroke="#1f2a37" stroke-width="1.4" stroke-linecap="round"/><polygon points="758.0,130.0 749.8,133.7 749.8,126.3" fill="#1f2a37"/><line x1="720.0" y1="270.0" x2="752.6" y2="270.0" stroke="#1f2a37" stroke-width="1.4" stroke-linecap="round"/><polygon points="758.0,270.0 749.8,273.7 749.8,266.3" fill="#1f2a37"/><rect x="870.0" y="170.0" width="60.0" height="60.0" rx="8" fill="#c6f6d5" stroke="#2f855a" stroke-width="1.8"/><text x="900.0" y="197.0" font-family="ui-sans-serif,system-ui,'Segoe UI',Helvetica,Arial,sans-serif" font-size="10" fill="#1f2a37" text-anchor="middle" font-weight="bold">key</text><text x="900.0" y="210.0" font-family="ui-sans-serif,system-ui,'Segoe UI',Helvetica,Arial,sans-serif" font-size="10" fill="#1f2a37" text-anchor="middle" font-weight="bold">equal?</text><line x1="850.0" y1="130.0" x2="866.4" y2="184.8" stroke="#1f2a37" stroke-width="1.3" stroke-linecap="round"/><polygon points="868.0,190.0 862.1,183.2 869.2,181.1" fill="#1f2a37"/><line x1="850.0" y1="270.0" x2="866.4" y2="215.2" stroke="#1f2a37" stroke-width="1.3" stroke-linecap="round"/><polygon points="868.0,210.0 869.2,218.9 862.1,216.8" fill="#1f2a37"/><text x="715.0" y="345.0" font-family="ui-sans-serif,system-ui,'Segoe UI',Helvetica,Arial,sans-serif" font-size="11.5" fill="#2f855a" text-anchor="middle" font-weight="bold">area is a few hundred LUTs plus RAM, whatever the capacity;</text><text x="715.0" y="365.0" font-family="ui-sans-serif,system-ui,'Segoe UI',Helvetica,Arial,sans-serif" font-size="11.5" fill="#2f855a" text-anchor="middle" font-weight="bold">two RAM reads per lookup; the control plane places the entry</text></svg>