<svg xmlns="http://www.w3.org/2000/svg" viewBox="0 0 940 400" role="img" aria-label="The attention graph"><title>The attention graph</title><rect x="0.5" y="0.5" width="939" height="399" rx="10" fill="#fbfcfe" stroke="#d5dbe3"/><text x="470.0" y="22.0" font-family="ui-sans-serif,system-ui,'Segoe UI',Helvetica,Arial,sans-serif" font-size="14" fill="#1f2a37" text-anchor="middle" font-weight="bold">Running example A's graph: the attention step as Capra sees it (boxes are tensors, with their shapes)</text><rect x="20.0" y="60.0" width="150.0" height="42.0" rx="8" fill="#edf2f7" stroke="#a0aec0" stroke-width="1.8"/><text x="95.0" y="78.0" font-family="ui-sans-serif,system-ui,'Segoe UI',Helvetica,Arial,sans-serif" font-size="11.5" fill="#1f2a37" text-anchor="middle" font-weight="bold">q</text><text x="95.0" y="93.0" font-family="ui-sans-serif,system-ui,'Segoe UI',Helvetica,Arial,sans-serif" font-size="8.5" fill="#51606f" text-anchor="middle" font-style="italic">1x8</text><rect x="20.0" y="140.0" width="150.0" height="42.0" rx="8" fill="#edf2f7" stroke="#a0aec0" stroke-width="1.8"/><text x="95.0" y="158.0" font-family="ui-sans-serif,system-ui,'Segoe UI',Helvetica,Arial,sans-serif" font-size="11.5" fill="#1f2a37" text-anchor="middle" font-weight="bold">kc (key cache)</text><text x="95.0" y="173.0" font-family="ui-sans-serif,system-ui,'Segoe UI',Helvetica,Arial,sans-serif" font-size="8.5" fill="#51606f" text-anchor="middle" font-style="italic">5x8</text><rect x="20.0" y="210.0" width="150.0" height="42.0" rx="8" fill="#edf2f7" stroke="#a0aec0" stroke-width="1.8"/><text x="95.0" y="228.0" font-family="ui-sans-serif,system-ui,'Segoe UI',Helvetica,Arial,sans-serif" font-size="11.5" fill="#1f2a37" text-anchor="middle" font-weight="bold">kn (new key)</text><text x="95.0" y="243.0" font-family="ui-sans-serif,system-ui,'Segoe UI',Helvetica,Arial,sans-serif" font-size="8.5" fill="#51606f" text-anchor="middle" font-style="italic">1x8</text><rect x="230.0" y="170.0" width="150.0" height="42.0" rx="8" fill="#fefcbf" stroke="#a0aec0" stroke-width="1.8"/><text x="305.0" y="188.0" font-family="ui-sans-serif,system-ui,'Segoe UI',Helvetica,Arial,sans-serif" font-size="11.5" fill="#1f2a37" text-anchor="middle" font-weight="bold">concat -&gt; K</text><text x="305.0" y="203.0" font-family="ui-sans-serif,system-ui,'Segoe UI',Helvetica,Arial,sans-serif" font-size="8.5" fill="#51606f" text-anchor="middle" font-style="italic">6x8</text><rect x="430.0" y="100.0" width="150.0" height="42.0" rx="8" fill="#dbeafe" stroke="#2b6cb0" stroke-width="1.8"/><text x="505.0" y="118.0" font-family="ui-sans-serif,system-ui,'Segoe UI',Helvetica,Arial,sans-serif" font-size="11.5" fill="#1f2a37" text-anchor="middle" font-weight="bold">matmul K^T x 0.354</text><text x="505.0" y="133.0" font-family="ui-sans-serif,system-ui,'Segoe UI',Helvetica,Arial,sans-serif" font-size="8.5" fill="#51606f" text-anchor="middle" font-style="italic">1x6</text><rect x="620.0" y="100.0" width="150.0" height="42.0" rx="8" fill="#e9d8fd" stroke="#6b46c1" stroke-width="1.8"/><text x="695.0" y="118.0" font-family="ui-sans-serif,system-ui,'Segoe UI',Helvetica,Arial,sans-serif" font-size="11.5" fill="#1f2a37" text-anchor="middle" font-weight="bold">softmax</text><text x="695.0" y="133.0" font-family="ui-sans-serif,system-ui,'Segoe UI',Helvetica,Arial,sans-serif" font-size="8.5" fill="#51606f" text-anchor="middle" font-style="italic">1x6</text><rect x="20.0" y="290.0" width="150.0" height="42.0" rx="8" fill="#edf2f7" stroke="#a0aec0" stroke-width="1.8"/><text x="95.0" y="308.0" font-family="ui-sans-serif,system-ui,'Segoe UI',Helvetica,Arial,sans-serif" font-size="11.5" fill="#1f2a37" text-anchor="middle" font-weight="bold">vc (value cache)</text><text x="95.0" y="323.0" font-family="ui-sans-serif,system-ui,'Segoe UI',Helvetica,Arial,sans-serif" font-size="8.5" fill="#51606f" text-anchor="middle" font-style="italic">5x8</text><rect x="20.0" y="350.0" width="150.0" height="42.0" rx="8" fill="#edf2f7" stroke="#a0aec0" stroke-width="1.8"/><text x="95.0" y="368.0" font-family="ui-sans-serif,system-ui,'Segoe UI',Helvetica,Arial,sans-serif" font-size="11.5" fill="#1f2a37" text-anchor="middle" font-weight="bold">vn (new value)</text><text x="95.0" y="383.0" font-family="ui-sans-serif,system-ui,'Segoe UI',Helvetica,Arial,sans-serif" font-size="8.5" fill="#51606f" text-anchor="middle" font-style="italic">1x8</text><rect x="230.0" y="320.0" width="150.0" height="42.0" rx="8" fill="#fefcbf" stroke="#a0aec0" stroke-width="1.8"/><text x="305.0" y="338.0" font-family="ui-sans-serif,system-ui,'Segoe UI',Helvetica,Arial,sans-serif" font-size="11.5" fill="#1f2a37" text-anchor="middle" font-weight="bold">concat -&gt; V</text><text x="305.0" y="353.0" font-family="ui-sans-serif,system-ui,'Segoe UI',Helvetica,Arial,sans-serif" font-size="8.5" fill="#51606f" text-anchor="middle" font-style="italic">6x8</text><rect x="780.0" y="200.0" width="150.0" height="42.0" rx="8" fill="#dbeafe" stroke="#2b6cb0" stroke-width="1.8"/><text x="855.0" y="218.0" font-family="ui-sans-serif,system-ui,'Segoe UI',Helvetica,Arial,sans-serif" font-size="11.5" fill="#1f2a37" text-anchor="middle" font-weight="bold">matmul</text><text x="855.0" y="233.0" font-family="ui-sans-serif,system-ui,'Segoe UI',Helvetica,Arial,sans-serif" font-size="8.5" fill="#51606f" text-anchor="middle" font-style="italic">1x8</text><rect x="780.0" y="290.0" width="150.0" height="42.0" rx="8" fill="#c6f6d5" stroke="#2f855a" stroke-width="1.8"/><text x="855.0" y="308.0" font-family="ui-sans-serif,system-ui,'Segoe UI',Helvetica,Arial,sans-serif" font-size="11.5" fill="#1f2a37" text-anchor="middle" font-weight="bold">output</text><text x="855.0" y="323.0" font-family="ui-sans-serif,system-ui,'Segoe UI',Helvetica,Arial,sans-serif" font-size="8.5" fill="#51606f" text-anchor="middle" font-style="italic">1x8</text><line x1="172.0" y1="81.0" x2="422.7" y2="120.2" stroke="#1f2a37" stroke-width="1.6" stroke-linecap="round"/><polygon points="428.0,121.0 419.3,123.4 420.4,116.1" fill="#1f2a37"/><line x1="172.0" y1="161.0" x2="223.2" y2="188.5" stroke="#1f2a37" stroke-width="1.6" stroke-linecap="round"/><polygon points="228.0,191.0 219.0,190.4 222.5,183.9" fill="#1f2a37"/><line x1="172.0" y1="231.0" x2="223.6" y2="194.1" stroke="#1f2a37" stroke-width="1.6" stroke-linecap="round"/><polygon points="228.0,191.0 223.4,198.8 219.2,192.8" fill="#1f2a37"/><line x1="382.0" y1="191.0" x2="425.0" y2="125.5" stroke="#1f2a37" stroke-width="1.6" stroke-linecap="round"/><polygon points="428.0,121.0 426.6,129.9 420.4,125.9" fill="#1f2a37"/><line x1="582.0" y1="121.0" x2="612.6" y2="121.0" stroke="#1f2a37" stroke-width="1.6" stroke-linecap="round"/><polygon points="618.0,121.0 609.8,124.7 609.8,117.3" fill="#1f2a37"/><line x1="172.0" y1="311.0" x2="223.2" y2="338.5" stroke="#1f2a37" stroke-width="1.6" stroke-linecap="round"/><polygon points="228.0,341.0 219.0,340.4 222.5,333.9" fill="#1f2a37"/><line x1="172.0" y1="371.0" x2="223.2" y2="343.5" stroke="#1f2a37" stroke-width="1.6" stroke-linecap="round"/><polygon points="228.0,341.0 222.5,348.1 219.0,341.6" fill="#1f2a37"/><line x1="382.0" y1="341.0" x2="772.8" y2="222.6" stroke="#1f2a37" stroke-width="1.6" stroke-linecap="round"/><polygon points="778.0,221.0 771.2,226.9 769.1,219.9" fill="#1f2a37"/><line x1="772.0" y1="121.0" x2="777.7" y2="215.6" stroke="#1f2a37" stroke-width="1.6" stroke-linecap="round"/><polygon points="778.0,221.0 773.8,213.0 781.2,212.6" fill="#1f2a37"/><line x1="855.0" y1="244.0" x2="855.0" y2="282.6" stroke="#1f2a37" stroke-width="1.6" stroke-linecap="round"/><polygon points="855.0,288.0 851.3,279.8 858.7,279.8" fill="#1f2a37"/><text x="700.0" y="60.0" font-family="ui-sans-serif,system-ui,'Segoe UI',Helvetica,Arial,sans-serif" font-size="11" fill="#6b46c1" text-anchor="middle" font-weight="bold">scores pinned to 1/16 (Q4.4)</text><text x="700.0" y="172.0" font-family="ui-sans-serif,system-ui,'Segoe UI',Helvetica,Arial,sans-serif" font-size="11" fill="#6b46c1" text-anchor="middle" font-weight="bold">weights pinned to 1/127</text></svg>