<svg xmlns="http://www.w3.org/2000/svg" viewBox="0 0 940 400" role="img" aria-label="Query heads and key/value groups"><title>Query heads and key/value groups</title><rect x="0.5" y="0.5" width="939" height="399" rx="10" fill="#fbfcfe" stroke="#d5dbe3"/><text x="470.0" y="22.0" font-family="ui-sans-serif,system-ui,'Segoe UI',Helvetica,Arial,sans-serif" font-size="14" fill="#1f2a37" text-anchor="middle" font-weight="bold">Which cache does each query head read?</text><text x="160.0" y="56.0" font-family="ui-sans-serif,system-ui,'Segoe UI',Helvetica,Arial,sans-serif" font-size="13.5" fill="#1f2a37" text-anchor="middle" font-weight="bold">MHA: G = 4</text><rect x="20.0" y="80.0" width="60.0" height="40.0" rx="8" fill="#dbeafe" stroke="#2b6cb0" stroke-width="1.8"/><text x="50.0" y="104.5" font-family="ui-sans-serif,system-ui,'Segoe UI',Helvetica,Arial,sans-serif" font-size="13" fill="#1f2a37" text-anchor="middle" font-weight="bold">Q0</text><rect x="90.0" y="80.0" width="60.0" height="40.0" rx="8" fill="#dbeafe" stroke="#2b6cb0" stroke-width="1.8"/><text x="120.0" y="104.5" font-family="ui-sans-serif,system-ui,'Segoe UI',Helvetica,Arial,sans-serif" font-size="13" fill="#1f2a37" text-anchor="middle" font-weight="bold">Q1</text><rect x="160.0" y="80.0" width="60.0" height="40.0" rx="8" fill="#dbeafe" stroke="#2b6cb0" stroke-width="1.8"/><text x="190.0" y="104.5" font-family="ui-sans-serif,system-ui,'Segoe UI',Helvetica,Arial,sans-serif" font-size="13" fill="#1f2a37" text-anchor="middle" font-weight="bold">Q2</text><rect x="230.0" y="80.0" width="60.0" height="40.0" rx="8" fill="#dbeafe" stroke="#2b6cb0" stroke-width="1.8"/><text x="260.0" y="104.5" font-family="ui-sans-serif,system-ui,'Segoe UI',Helvetica,Arial,sans-serif" font-size="13" fill="#1f2a37" text-anchor="middle" font-weight="bold">Q3</text><rect x="20.0" y="250.0" width="60.0" height="60.0" rx="8" fill="#feebc8" stroke="#dd6b20" stroke-width="1.8"/><text x="50.0" y="284.6" font-family="ui-sans-serif,system-ui,'Segoe UI',Helvetica,Arial,sans-serif" font-size="13" fill="#1f2a37" text-anchor="middle" font-weight="bold">K0, V0</text><line x1="50.0" y1="122.0" x2="50.0" y2="243.8" stroke="#a0aec0" stroke-width="1.8" stroke-linecap="round"/><polygon points="50.0,248.0 47.1,241.6 52.9,241.6" fill="#a0aec0"/><rect x="90.0" y="250.0" width="60.0" height="60.0" rx="8" fill="#feebc8" stroke="#dd6b20" stroke-width="1.8"/><text x="120.0" y="284.6" font-family="ui-sans-serif,system-ui,'Segoe UI',Helvetica,Arial,sans-serif" font-size="13" fill="#1f2a37" text-anchor="middle" font-weight="bold">K1, V1</text><line x1="120.0" y1="122.0" x2="120.0" y2="243.8" stroke="#a0aec0" stroke-width="1.8" stroke-linecap="round"/><polygon points="120.0,248.0 117.1,241.6 122.9,241.6" fill="#a0aec0"/><rect x="160.0" y="250.0" width="60.0" height="60.0" rx="8" fill="#feebc8" stroke="#dd6b20" stroke-width="1.8"/><text x="190.0" y="284.6" font-family="ui-sans-serif,system-ui,'Segoe UI',Helvetica,Arial,sans-serif" font-size="13" fill="#1f2a37" text-anchor="middle" font-weight="bold">K2, V2</text><line x1="190.0" y1="122.0" x2="190.0" y2="243.8" stroke="#a0aec0" stroke-width="1.8" stroke-linecap="round"/><polygon points="190.0,248.0 187.1,241.6 192.9,241.6" fill="#a0aec0"/><rect x="230.0" y="250.0" width="60.0" height="60.0" rx="8" fill="#feebc8" stroke="#dd6b20" stroke-width="1.8"/><text x="260.0" y="284.6" font-family="ui-sans-serif,system-ui,'Segoe UI',Helvetica,Arial,sans-serif" font-size="13" fill="#1f2a37" text-anchor="middle" font-weight="bold">K3, V3</text><line x1="260.0" y1="122.0" x2="260.0" y2="243.8" stroke="#a0aec0" stroke-width="1.8" stroke-linecap="round"/><polygon points="260.0,248.0 257.1,241.6 262.9,241.6" fill="#a0aec0"/><text x="160.0" y="345.0" font-family="ui-sans-serif,system-ui,'Segoe UI',Helvetica,Arial,sans-serif" font-size="12" fill="#51606f" text-anchor="middle" font-style="italic">cache per token: 32 words</text><text x="470.0" y="56.0" font-family="ui-sans-serif,system-ui,'Segoe UI',Helvetica,Arial,sans-serif" font-size="13.5" fill="#1f2a37" text-anchor="middle" font-weight="bold">GQA: G = 2</text><rect x="330.0" y="80.0" width="60.0" height="40.0" rx="8" fill="#dbeafe" stroke="#2b6cb0" stroke-width="1.8"/><text x="360.0" y="104.5" font-family="ui-sans-serif,system-ui,'Segoe UI',Helvetica,Arial,sans-serif" font-size="13" fill="#1f2a37" text-anchor="middle" font-weight="bold">Q0</text><rect x="400.0" y="80.0" width="60.0" height="40.0" rx="8" fill="#dbeafe" stroke="#2b6cb0" stroke-width="1.8"/><text x="430.0" y="104.5" font-family="ui-sans-serif,system-ui,'Segoe UI',Helvetica,Arial,sans-serif" font-size="13" fill="#1f2a37" text-anchor="middle" font-weight="bold">Q1</text><rect x="470.0" y="80.0" width="60.0" height="40.0" rx="8" fill="#dbeafe" stroke="#2b6cb0" stroke-width="1.8"/><text x="500.0" y="104.5" font-family="ui-sans-serif,system-ui,'Segoe UI',Helvetica,Arial,sans-serif" font-size="13" fill="#1f2a37" text-anchor="middle" font-weight="bold">Q2</text><rect x="540.0" y="80.0" width="60.0" height="40.0" rx="8" fill="#dbeafe" stroke="#2b6cb0" stroke-width="1.8"/><text x="570.0" y="104.5" font-family="ui-sans-serif,system-ui,'Segoe UI',Helvetica,Arial,sans-serif" font-size="13" fill="#1f2a37" text-anchor="middle" font-weight="bold">Q3</text><rect x="330.0" y="250.0" width="130.0" height="60.0" rx="8" fill="#feebc8" stroke="#dd6b20" stroke-width="1.8"/><text x="395.0" y="284.6" font-family="ui-sans-serif,system-ui,'Segoe UI',Helvetica,Arial,sans-serif" font-size="13" fill="#1f2a37" text-anchor="middle" font-weight="bold">K0, V0</text><line x1="360.0" y1="122.0" x2="393.9" y2="244.0" stroke="#a0aec0" stroke-width="1.8" stroke-linecap="round"/><polygon points="395.0,248.0 390.5,242.6 396.0,241.1" fill="#a0aec0"/><line x1="430.0" y1="122.0" x2="396.1" y2="244.0" stroke="#a0aec0" stroke-width="1.8" stroke-linecap="round"/><polygon points="395.0,248.0 394.0,241.1 399.5,242.6" fill="#a0aec0"/><rect x="470.0" y="250.0" width="130.0" height="60.0" rx="8" fill="#feebc8" stroke="#dd6b20" stroke-width="1.8"/><text x="535.0" y="284.6" font-family="ui-sans-serif,system-ui,'Segoe UI',Helvetica,Arial,sans-serif" font-size="13" fill="#1f2a37" text-anchor="middle" font-weight="bold">K1, V1</text><line x1="500.0" y1="122.0" x2="533.9" y2="244.0" stroke="#a0aec0" stroke-width="1.8" stroke-linecap="round"/><polygon points="535.0,248.0 530.5,242.6 536.0,241.1" fill="#a0aec0"/><line x1="570.0" y1="122.0" x2="536.1" y2="244.0" stroke="#a0aec0" stroke-width="1.8" stroke-linecap="round"/><polygon points="535.0,248.0 534.0,241.1 539.5,242.6" fill="#a0aec0"/><text x="470.0" y="345.0" font-family="ui-sans-serif,system-ui,'Segoe UI',Helvetica,Arial,sans-serif" font-size="12" fill="#51606f" text-anchor="middle" font-style="italic">cache per token: 16 words</text><text x="780.0" y="56.0" font-family="ui-sans-serif,system-ui,'Segoe UI',Helvetica,Arial,sans-serif" font-size="13.5" fill="#1f2a37" text-anchor="middle" font-weight="bold">MQA: G = 1</text><rect x="640.0" y="80.0" width="60.0" height="40.0" rx="8" fill="#dbeafe" stroke="#2b6cb0" stroke-width="1.8"/><text x="670.0" y="104.5" font-family="ui-sans-serif,system-ui,'Segoe UI',Helvetica,Arial,sans-serif" font-size="13" fill="#1f2a37" text-anchor="middle" font-weight="bold">Q0</text><rect x="710.0" y="80.0" width="60.0" height="40.0" rx="8" fill="#dbeafe" stroke="#2b6cb0" stroke-width="1.8"/><text x="740.0" y="104.5" font-family="ui-sans-serif,system-ui,'Segoe UI',Helvetica,Arial,sans-serif" font-size="13" fill="#1f2a37" text-anchor="middle" font-weight="bold">Q1</text><rect x="780.0" y="80.0" width="60.0" height="40.0" rx="8" fill="#dbeafe" stroke="#2b6cb0" stroke-width="1.8"/><text x="810.0" y="104.5" font-family="ui-sans-serif,system-ui,'Segoe UI',Helvetica,Arial,sans-serif" font-size="13" fill="#1f2a37" text-anchor="middle" font-weight="bold">Q2</text><rect x="850.0" y="80.0" width="60.0" height="40.0" rx="8" fill="#dbeafe" stroke="#2b6cb0" stroke-width="1.8"/><text x="880.0" y="104.5" font-family="ui-sans-serif,system-ui,'Segoe UI',Helvetica,Arial,sans-serif" font-size="13" fill="#1f2a37" text-anchor="middle" font-weight="bold">Q3</text><rect x="640.0" y="250.0" width="270.0" height="60.0" rx="8" fill="#feebc8" stroke="#dd6b20" stroke-width="1.8"/><text x="775.0" y="284.6" font-family="ui-sans-serif,system-ui,'Segoe UI',Helvetica,Arial,sans-serif" font-size="13" fill="#1f2a37" text-anchor="middle" font-weight="bold">K0, V0</text><line x1="670.0" y1="122.0" x2="772.3" y2="244.8" stroke="#a0aec0" stroke-width="1.8" stroke-linecap="round"/><polygon points="775.0,248.0 768.7,244.9 773.1,241.3" fill="#a0aec0"/><line x1="740.0" y1="122.0" x2="773.9" y2="244.0" stroke="#a0aec0" stroke-width="1.8" stroke-linecap="round"/><polygon points="775.0,248.0 770.5,242.6 776.0,241.1" fill="#a0aec0"/><line x1="810.0" y1="122.0" x2="776.1" y2="244.0" stroke="#a0aec0" stroke-width="1.8" stroke-linecap="round"/><polygon points="775.0,248.0 774.0,241.1 779.5,242.6" fill="#a0aec0"/><line x1="880.0" y1="122.0" x2="777.7" y2="244.8" stroke="#a0aec0" stroke-width="1.8" stroke-linecap="round"/><polygon points="775.0,248.0 776.9,241.3 781.3,244.9" fill="#a0aec0"/><text x="780.0" y="345.0" font-family="ui-sans-serif,system-ui,'Segoe UI',Helvetica,Arial,sans-serif" font-size="12" fill="#51606f" text-anchor="middle" font-style="italic">cache per token: 8 words</text><text x="470.0" y="385.0" font-family="ui-sans-serif,system-ui,'Segoe UI',Helvetica,Arial,sans-serif" font-size="12" fill="#51606f" text-anchor="middle" font-style="italic">The query heads are all kept; only the keys and values are shared, so the cache shrinks and the attention arithmetic does not.</text></svg>